<?xml version="1.0" encoding="utf-8"?>
<!-- Generator: Adobe Illustrator 17.0.0, SVG Export Plug-In . SVG Version: 6.00 Build 0)  -->
<!DOCTYPE svg PUBLIC "-//W3C//DTD SVG 1.1//EN" "http://www.w3.org/Graphics/SVG/1.1/DTD/svg11.dtd">
<svg version="1.1" id="Layer_1" xmlns="http://www.w3.org/2000/svg" xmlns:xlink="http://www.w3.org/1999/xlink" x="0px" y="0px"
	 width="19.156px" height="17.156px" viewBox="0 0 19.156 17.156" enable-background="new 0 0 19.156 17.156" xml:space="preserve">
<g id="social_funnels_icon">
	<g>
		<path fill="#FFFFFF" d="M19.046,5.959c-0.006-0.348-0.013-0.696-0.019-1.044c-0.12-0.564-0.037-1.209-0.155-1.753
			c-0.013-0.151-0.026-0.302-0.039-0.453c-0.083-0.32-0.22-0.624-0.388-0.866c-0.336-0.487-0.861-0.901-1.473-1.103
			c-0.539-0.178-1.181-0.12-1.764-0.256c-0.483-0.113-1.054-0.085-1.55-0.197c-0.142-0.007-0.284-0.013-0.426-0.02
			c-0.315-0.07-0.707-0.027-1.027-0.098h-0.329c-0.246-0.054-0.541,0.021-0.814-0.039c-0.176-0.039-0.439,0.024-0.64-0.02
			c-0.179-0.04-0.447-0.02-0.659-0.02h-1.24C7.831,0.124,7.14,0.157,6.449,0.189C6.086,0.27,5.684,0.203,5.305,0.288
			c-0.714,0.159-1.501,0.131-2.19,0.295C2.851,0.646,2.601,0.622,2.36,0.701C1.941,0.839,1.625,1.056,1.313,1.292
			c-0.132,0.099-0.29,0.203-0.388,0.335C0.694,1.938,0.468,2.248,0.344,2.671C0.291,2.852,0.329,3.024,0.286,3.222
			c-0.115,0.526-0.039,1.19-0.155,1.733v0.532c-0.059,0.275-0.058,1.182,0,1.457C0.196,7.253,0.111,7.591,0.17,7.87
			C0.176,8.06,0.183,8.25,0.189,8.441c0.133,0.624,0.097,1.317,0.233,1.91c0.045,0.198,0.021,0.373,0.078,0.551
			c0.187,0.587,0.626,1.204,1.066,1.536c0.264,0.199,0.57,0.399,0.911,0.512c0.496,0.164,1.019,0.147,1.55,0.276
			c0.388,0.094,0.823,0.081,1.24,0.177c0.271,0.063,0.575,0.032,0.872,0.099c0.485,0.109,1.09,0.11,1.609,0.138
			c0.231,0.49,0.501,0.98,0.775,1.438c0.181,0.301,0.284,0.625,0.465,0.926c0.139,0.231,0.244,0.49,0.388,0.729
			c0.063,0.104,0.162,0.224,0.194,0.354c0.114-0.058,0.128-0.225,0.194-0.335c0.132-0.22,0.242-0.453,0.368-0.689l2.267-2.521
			c0.283-0.063,0.578-0.021,0.833-0.079h0.194c0.297-0.067,0.659-0.07,0.95-0.138c0.187-0.02,0.375-0.039,0.562-0.059
			c0.475-0.115,1.011-0.16,1.473-0.276c0.172-0.043,0.296-0.023,0.446-0.079c0.71-0.264,1.279-0.803,1.647-1.418
			c0.378-0.632,0.283-1.499,0.465-2.344c0.013-0.276,0.026-0.551,0.039-0.827c0.064-0.298-0.029-0.685,0.039-1.004
			C19.102,7.057,19.101,6.221,19.046,5.959z M7.185,7.948c-0.31,0.139-0.625,0.288-0.95,0.433C5.238,8.829,4.229,9.332,3.232,9.78
			c-0.355,0.16-0.701,0.277-1.047,0.453c-0.075,0.038-0.273,0.179-0.349,0.138H1.778v-0.02c0.473-0.23,0.935-0.515,1.376-0.788
			C3.807,9.16,4.506,8.84,5.15,8.441c0.427-0.264,0.88-0.47,1.298-0.729c0.153-0.095,0.336-0.138,0.465-0.256
			c0.207,0.112,0.413,0.223,0.62,0.335C7.446,7.876,7.305,7.895,7.185,7.948z M10.054,7.811C9.962,7.868,9.703,8.07,9.608,8.086
			C9.538,8.098,9.19,7.852,9.123,7.811C8.653,7.52,8.151,7.289,7.689,7.003C7.454,6.858,7.207,6.774,6.972,6.629
			c-0.836-0.518-1.741-0.96-2.578-1.477C4.172,5.014,3.939,4.936,3.716,4.798C3.311,4.546,2.87,4.346,2.457,4.089
			C2.266,3.97,2.027,3.772,1.798,3.714C1.866,3.575,2.113,3.54,2.224,3.439C2.432,3.476,2.61,3.616,2.786,3.695
			c0.396,0.177,0.782,0.361,1.163,0.532c1.297,0.58,2.56,1.154,3.857,1.733C8.175,6.124,8.546,6.3,8.93,6.471
			c0.201,0.09,0.409,0.242,0.64,0.295c0.111,0.04,0.356-0.148,0.465-0.197c0.443-0.197,0.877-0.379,1.298-0.591
			c0.473-0.238,0.95-0.413,1.434-0.63c0.868-0.389,1.749-0.832,2.616-1.221c0.324-0.146,0.64-0.294,0.95-0.433
			c0.185-0.083,0.419-0.128,0.562-0.256c0.199,0.034,0.303,0.187,0.484,0.236c-0.074,0.155-0.606,0.348-0.775,0.453
			c-0.596,0.37-1.245,0.695-1.841,1.063c-0.122,0.075-0.247,0.102-0.368,0.177c-0.823,0.51-1.715,0.948-2.539,1.457
			c-0.292,0.181-0.6,0.292-0.892,0.473C10.673,7.479,10.353,7.625,10.054,7.811z M17.341,10.371
			c-0.099,0.038-0.292-0.115-0.388-0.157c-0.325-0.144-0.639-0.295-0.95-0.433c-1.032-0.46-2.045-0.942-3.062-1.398
			c-0.324-0.145-0.64-0.294-0.95-0.433c-0.11-0.049-0.227-0.064-0.31-0.138c-0.033-0.013-0.019-0.004-0.039-0.02
			c0.149-0.072,0.486-0.217,0.581-0.335c0.205,0.056,0.393,0.211,0.562,0.315c0.3,0.186,0.618,0.331,0.911,0.512
			c0.644,0.398,1.333,0.683,1.977,1.083c0.348,0.216,0.729,0.388,1.085,0.61c0.202,0.126,0.417,0.274,0.64,0.374
			C17.378,10.366,17.381,10.363,17.341,10.371z"/>
	</g>
</g>
</svg>
